# xmcd
#
# Track frame offsets:
# 183
# 16470
# 36548
# 54663
# 76915
# 92943
# 113863
# 130760
# 149205
# 159500
# 174968
#
# Disc length: 2514 seconds
#
#
# Revision: 0
# Processed by: cddbd v1.5.2PL0 Copyright (c) Steve Scherf et al.
# Submitted via: FreeRIP 2.945 
#
DISCID=9709d00b
DTITLE=BoDeans - Love and Hope and Sex and Dreams
DYEAR=1986
DGENRE=
TTITLE0=She's A Runaway
TTITLE1=Fadeaway
TTITLE2=Still The Night
TTITLE3=Rickshaw Riding
TTITLE4=Angels
TTITLE5=Misery
TTITLE6=The Strangest Kind
TTITLE7=Say You Will
TTITLE8=Ultimately Fine
TTITLE9=That's All
TTITLE10=Lookin' For Me Somewhere
EXTD=
EXTT0=
EXTT1=
EXTT2=
EXTT3=
EXTT4=
EXTT5=
EXTT6=
EXTT7=
EXTT8=
EXTT9=
EXTT10=
PLAYORDER=
